<?xml version="1.0" encoding="UTF-8" standalone="no"?>
<!-- Created with Inkscape (http://www.inkscape.org/) -->

<svg
   xmlns:dc="http://purl.org/dc/elements/1.1/"
   xmlns:cc="http://creativecommons.org/ns#"
   xmlns:rdf="http://www.w3.org/1999/02/22-rdf-syntax-ns#"
   xmlns:svg="http://www.w3.org/2000/svg"
   xmlns="http://www.w3.org/2000/svg"
   xmlns:xlink="http://www.w3.org/1999/xlink"
   xmlns:sodipodi="http://sodipodi.sourceforge.net/DTD/sodipodi-0.dtd"
   xmlns:inkscape="http://www.inkscape.org/namespaces/inkscape"
   width="210mm"
   height="297mm"
   viewBox="0 0 210 297"
   version="1.1"
   id="svg8"
   inkscape:version="0.92.4 (f8dce91, 2019-08-02)"
   sodipodi:docname="alllogos.svg">
  <defs
     id="defs2">
    <linearGradient
       id="linearGradient-1"
       y2="133.96048"
       x2="198.29675"
       y1="63.454958"
       x1="-5.5082427"
       gradientTransform="scale(1.2909944,0.77459667)"
       gradientUnits="userSpaceOnUse">
      <stop
         id="stop815"
         offset="0%"
         stop-color="#2298BD" />
      <stop
         id="stop817"
         offset="100%"
         stop-color="#0ED7B5" />
    </linearGradient>
    <linearGradient
       inkscape:collect="always"
       id="linearGradient945">
      <stop
         style="stop-color:#ff00ff;stop-opacity:1;"
         offset="0"
         id="stop941" />
      <stop
         style="stop-color:#fa00ff;stop-opacity:0"
         offset="1"
         id="stop943" />
    </linearGradient>
    <linearGradient
       inkscape:collect="always"
       id="linearGradient933">
      <stop
         style="stop-color:#563d7c;stop-opacity:0.03539823"
         offset="0"
         id="stop929" />
      <stop
         style="stop-color:#ffffff;stop-opacity:1"
         offset="1"
         id="stop931" />
    </linearGradient>
    <linearGradient
       inkscape:collect="always"
       xlink:href="#linearGradient933"
       id="linearGradient935"
       x1="94.896324"
       y1="164.715"
       x2="360.17523"
       y2="-100.56391"
       gradientUnits="userSpaceOnUse" />
    <linearGradient
       inkscape:collect="always"
       xlink:href="#linearGradient945"
       id="linearGradient947"
       x1="510.92151"
       y1="-233.34657"
       x2="20.333538"
       y2="193.25624"
       gradientUnits="userSpaceOnUse"
       gradientTransform="translate(10.39411,-10.39411)" />
  </defs>
  <sodipodi:namedview
     id="base"
     pagecolor="#ffffff"
     bordercolor="#666666"
     borderopacity="1.0"
     inkscape:pageopacity="0.0"
     inkscape:pageshadow="2"
     inkscape:zoom="0.35"
     inkscape:cx="-2670.4033"
     inkscape:cy="596.59335"
     inkscape:document-units="mm"
     inkscape:current-layer="layer1-35"
     showgrid="false"
     inkscape:window-width="1920"
     inkscape:window-height="1016"
     inkscape:window-x="0"
     inkscape:window-y="27"
     inkscape:window-maximized="1" />
  <metadata
     id="metadata5">
    <rdf:RDF>
      <cc:Work
         rdf:about="">
        <dc:format>image/svg+xml</dc:format>
        <dc:type
           rdf:resource="http://purl.org/dc/dcmitype/StillImage" />
        <dc:title />
      </cc:Work>
    </rdf:RDF>
  </metadata>
  <g
     inkscape:label="Layer 1"
     inkscape:groupmode="layer"
     id="layer1">
    <g
       transform="translate(-223.21581,-115.55703)"
       id="layer1-35"
       inkscape:label="Layer 1">
      <rect
         y="198.04729"
         x="-98.783798"
         height="99.424255"
         width="99.424255"
         id="rect915"
         style="opacity:0.7;fill:#1a1a1a;fill-opacity:0.99557525;stroke:none;stroke-width:0.25874257;stroke-miterlimit:4;stroke-dasharray:none;stroke-dashoffset:0;stroke-opacity:0.93681066" />
      <g
         transform="matrix(0.96887265,0,0,0.96887265,-134.95472,128.26741)"
         id="g871">
        <path
           inkscape:connector-curvature="0"
           style="opacity:1;fill:#d8dee9;fill-opacity:1;stroke:none;stroke-width:1.06204724;stroke-miterlimit:4;stroke-dasharray:none;stroke-dashoffset:0;stroke-opacity:0.93681066"
           d="M 425.75391,369.49219 246.45117,548.79492 h 180.3125 l 89.14649,-89.14648 z"
           transform="scale(0.26458333)"
           id="rect828" />
        <path
           inkscape:connector-curvature="0"
           style="opacity:1;fill:#8ac0cf;fill-opacity:1;stroke:none;stroke-width:1.06204724;stroke-miterlimit:4;stroke-dasharray:none;stroke-dashoffset:0;stroke-opacity:0.93681066"
           d="m 247.46094,369.49219 -90.15625,90.15625 89.14648,89.14648 h 180.3125 z"
           transform="scale(0.26458333)"
           id="rect826" />
      </g>
      <rect
         style="opacity:0.7;fill:#1a1a1a;fill-opacity:0.99557525;stroke:none;stroke-width:0.25874257;stroke-miterlimit:4;stroke-dasharray:none;stroke-dashoffset:0;stroke-opacity:0.93681066"
         id="rect921"
         width="99.424255"
         height="99.424255"
         x="255.36176"
         y="198.04729" />
      <g
         inkscape:label="Layer 1"
         id="layer1-3"
         transform="matrix(0.77113108,0,0,0.77113108,301.5774,174.92727)">
        <g
           transform="matrix(0.19632158,-0.12856775,0.19632158,0.12856775,-46.010794,88.205891)"
           id="g927"
           style="fill:url(#linearGradient935);fill-opacity:1">
          <g
             id="g1029"
             style="fill:url(#linearGradient935)">
            <g
               style="opacity:0.8;fill:#000000;fill-opacity:0"
               transform="translate(-81.691941,81.691941)"
               id="g919">
              <path
                 style="fill:#000000;fill-opacity:0"
                 inkscape:connector-curvature="0"
                 d="M 0,222.99122 C 0,241.22347 14.778532,256 33.008775,256 H 222.99122 C 241.22347,256 256,241.22147 256,222.99122 V 33.008775 C 256,14.776526 241.22147,0 222.99122,0 H 33.008775 C 14.776526,0 0,14.778532 0,33.008775 Z"
                 id="path915" />
            </g>
            <g
               style="opacity:0.7;fill:#7237c7;fill-opacity:0.96470588"
               id="g913"
               transform="translate(-81.691941,81.691941)">
              <path
                 id="path909"
                 d="M 0,222.99122 C 0,241.22347 14.778532,256 33.008775,256 H 222.99122 C 241.22347,256 256,241.22147 256,222.99122 V 33.008775 C 256,14.776526 241.22147,0 222.99122,0 H 33.008775 C 14.776526,0 0,14.778532 0,33.008775 Z"
                 inkscape:connector-curvature="0"
                 style="fill:#7237c7;fill-opacity:0.96470588" />
            </g>
            <g
               transform="translate(-35.494429,35.494429)"
               id="g896"
               style="opacity:0.85;fill:#7237c7;fill-opacity:0.96460176">
              <path
                 style="fill:#7237c7;fill-opacity:0.96460176"
                 inkscape:connector-curvature="0"
                 d="m -0.15447972,223.1457 c 0,18.23225 14.77853172,33.00878 33.00877472,33.00878 H 222.83674 c 18.23225,0 33.00878,-14.77853 33.00878,-33.00878 V 33.163255 c 0,-18.232249 -14.77853,-33.00877528 -33.00878,-33.00877528 H 32.854295 c -18.232249,0 -33.00877472,14.77853228 -33.00877472,33.00877528 z"
                 id="path892" />
              <path
                 style="fill:#7237c7;fill-opacity:0.96460176"
                 inkscape:connector-curvature="0"
                 d="M 106.15756,113.2381 V 76.984594 h 31.91177 c 3.03923,0 5.96987,0.253265 8.79201,0.759804 2.82215,0.506538 5.31862,1.411058 7.4895,2.713585 2.17088,1.302528 3.90756,3.111567 5.21008,5.427171 1.30253,2.315605 1.95379,5.282428 1.95379,8.90056 0,6.512636 -1.95377,11.216136 -5.86135,14.110646 -3.90758,2.8945 -8.90053,4.34174 -14.97899,4.34174 z M 72.07493,50.5 v 155 h 75.11204 c 6.94682,0 13.71262,-0.86834 20.29762,-2.60504 6.585,-1.73671 12.44629,-4.41408 17.58404,-8.03222 5.13774,-3.61813 9.22617,-8.28545 12.2654,-14.0021 3.03923,-5.71664 4.55883,-12.48245 4.55883,-20.29762 0,-9.69659 -2.35175,-17.98199 -7.05533,-24.85644 -4.70357,-6.87445 -11.83118,-11.68649 -21.38305,-14.43627 6.94681,-3.32868 12.19303,-7.59801 15.7388,-12.80812 3.54577,-5.21011 5.31863,-11.722655 5.31863,-19.53782 0,-7.236264 -1.19397,-13.314635 -3.58194,-18.235294 -2.38797,-4.92066 -5.75278,-8.864365 -10.09454,-11.831233 -4.34175,-2.966868 -9.55179,-5.101534 -15.63025,-6.404062 C 159.12672,51.151254 152.3971,50.5 145.01611,50.5 Z m 34.08263,128.51541 v -42.54902 h 37.12185 c 7.38099,0 13.31464,1.70049 17.80112,5.10154 4.48649,3.40104 6.72969,9.08142 6.72969,17.04131 0,4.05231 -0.68743,7.38094 -2.06232,9.986 -1.37489,2.60505 -3.22011,4.66736 -5.53572,6.18697 -2.3156,1.51962 -4.99298,2.60504 -8.03221,3.2563 -3.03923,0.65127 -6.22314,0.9769 -9.55182,0.9769 z"
                 id="path894" />
            </g>
            <g
               style="fill:#7237c7;fill-opacity:0.96460176"
               id="g1015"
               transform="translate(10.39411,-10.39411)">
              <path
                 id="path1011"
                 d="M 0,222.99122 C 0,241.22347 14.778532,256 33.008775,256 H 222.99122 C 241.22347,256 256,241.22147 256,222.99122 V 33.008775 C 256,14.776526 241.22147,0 222.99122,0 H 33.008775 C 14.776526,0 0,14.778532 0,33.008775 Z"
                 inkscape:connector-curvature="0"
                 style="fill:#7237c7;fill-opacity:0.96460176" />
              <path
                 id="path1013"
                 d="M 106.15756,113.2381 V 76.984594 h 31.91177 c 3.03923,0 5.96987,0.253265 8.79201,0.759804 2.82215,0.506538 5.31862,1.411058 7.4895,2.713585 2.17088,1.302528 3.90756,3.111567 5.21008,5.427171 1.30253,2.315605 1.95379,5.282428 1.95379,8.90056 0,6.512636 -1.95377,11.216136 -5.86135,14.110646 -3.90758,2.8945 -8.90053,4.34174 -14.97899,4.34174 z M 72.07493,50.5 v 155 h 75.11204 c 6.94682,0 13.71262,-0.86834 20.29762,-2.60504 6.585,-1.73671 12.44629,-4.41408 17.58404,-8.03222 5.13774,-3.61813 9.22617,-8.28545 12.2654,-14.0021 3.03923,-5.71664 4.55883,-12.48245 4.55883,-20.29762 0,-9.69659 -2.35175,-17.98199 -7.05533,-24.85644 -4.70357,-6.87445 -11.83118,-11.68649 -21.38305,-14.43627 6.94681,-3.32868 12.19303,-7.59801 15.7388,-12.80812 3.54577,-5.21011 5.31863,-11.722655 5.31863,-19.53782 0,-7.236264 -1.19397,-13.314635 -3.58194,-18.235294 -2.38797,-4.92066 -5.75278,-8.864365 -10.09454,-11.831233 -4.34175,-2.966868 -9.55179,-5.101534 -15.63025,-6.404062 C 159.12672,51.151254 152.3971,50.5 145.01611,50.5 Z m 34.08263,128.51541 v -42.54902 h 37.12185 c 7.38099,0 13.31464,1.70049 17.80112,5.10154 4.48649,3.40104 6.72969,9.08142 6.72969,17.04131 0,4.05231 -0.68743,7.38094 -2.06232,9.986 -1.37489,2.60505 -3.22011,4.66736 -5.53572,6.18697 -2.3156,1.51962 -4.99298,2.60504 -8.03221,3.2563 -3.03923,0.65127 -6.22314,0.9769 -9.55182,0.9769 z"
                 inkscape:connector-curvature="0"
                 style="fill:#7237c7;fill-opacity:0.96460176" />
            </g>
            <path
               id="path923"
               d="m 10.39411,212.59711 c 0,18.23225 14.77853,33.00878 33.00878,33.00878 h 189.98244 c 18.23225,0 33.00878,-14.77853 33.00878,-33.00878 V 22.614661 c 0,-18.23225 -14.77853,-33.008771 -33.00878,-33.008771 H 43.40289 c -18.23225,0 -33.00878,14.778531 -33.00878,33.008771 z"
               inkscape:connector-curvature="0"
               style="fill:url(#linearGradient947);fill-opacity:1" />
            <path
               style="fill:#ffffff;fill-opacity:0.94690265"
               inkscape:connector-curvature="0"
               d="M 116.55167,102.84399 V 66.590486 h 31.91177 c 3.03923,0 5.96987,0.25326 8.79201,0.7598 2.82215,0.50654 5.31862,1.41106 7.4895,2.71359 2.17088,1.30253 3.90756,3.11156 5.21008,5.42717 1.30253,2.3156 1.95379,5.28243 1.95379,8.90056 0,6.51263 -1.95377,11.21613 -5.86135,14.11064 -3.90758,2.894504 -8.90053,4.341744 -14.97899,4.341744 z M 82.469042,40.105886 V 195.10589 h 75.112038 c 6.94682,0 13.71262,-0.86834 20.29762,-2.60504 6.585,-1.73671 12.44629,-4.41408 17.58404,-8.03222 5.13774,-3.61813 9.22617,-8.28545 12.2654,-14.0021 3.03923,-5.71664 4.55883,-12.48245 4.55883,-20.29762 0,-9.69659 -2.35175,-17.98199 -7.05533,-24.85644 -4.70357,-6.87445 -11.83118,-11.68649 -21.38305,-14.43627 6.94681,-3.32868 12.19303,-7.59801 15.7388,-12.808124 3.54577,-5.21011 5.31863,-11.72265 5.31863,-19.53782 0,-7.23626 -1.19397,-13.31463 -3.58194,-18.23529 -2.38797,-4.92066 -5.75278,-8.86436 -10.09454,-11.83123 -4.34175,-2.96687 -9.55179,-5.10154 -15.63025,-6.40406 -6.07846,-1.30253 -12.80808,-1.95379 -20.18907,-1.95379 z M 116.55167,168.6213 v -42.54902 h 37.12185 c 7.38099,0 13.31464,1.70049 17.80112,5.10154 4.48649,3.40104 6.72969,9.08142 6.72969,17.04131 0,4.05231 -0.68743,7.38094 -2.06232,9.986 -1.37489,2.60505 -3.22011,4.66736 -5.53572,6.18697 -2.3156,1.51962 -4.99298,2.60504 -8.03221,3.2563 -3.03923,0.65127 -6.22314,0.9769 -9.55182,0.9769 z"
               id="path949" />
          </g>
        </g>
      </g>
      <rect
         y="198.04729"
         x="139.36678"
         height="99.424255"
         width="99.424255"
         id="rect919"
         style="opacity:0.7;fill:#1a1a1a;fill-opacity:0.99557525;stroke:none;stroke-width:0.25874257;stroke-miterlimit:4;stroke-dasharray:none;stroke-dashoffset:0;stroke-opacity:0.93681066" />
      <g
         transform="matrix(0.1956779,0,0,0.1956779,163.32014,210.65608)"
         id="g869">
        <polygon
           style="fill:#00d1b2;fill-rule:nonzero"
           points="116.36364,0 232.72727,116.36364 162.90909,186.18182 256,279.27273 116.36364,372.36364 0,256 23.272727,93.090909 "
           id="polygon867" />
      </g>
      <rect
         style="opacity:0.7;fill:#1a1a1a;fill-opacity:0.99557525;stroke:none;stroke-width:0.25874257;stroke-miterlimit:4;stroke-dasharray:none;stroke-dashoffset:0;stroke-opacity:0.93681066"
         id="rect917"
         width="99.424255"
         height="99.424255"
         x="21.233644"
         y="198.04729" />
      <g
         transform="matrix(0.22980335,0,0,0.22980335,42.210923,212.68216)"
         id="g885">
        <path
           style="fill:#ff3e00"
           inkscape:connector-curvature="0"
           d="M 239.68157,40.706757 C 211.11327,-0.18188937 154.69089,-12.301439 113.89482,13.691039 L 42.246906,59.355535 C 22.676004,71.668003 9.1958152,91.653854 5.1119689,114.41213 1.6942052,133.37117 4.6982178,152.92858 13.648395,169.9879 7.5154968,179.29114 3.3325943,189.7413 1.3524912,200.70679 c -4.1233289,23.19531 1.2703786,47.07375 14.9634688,66.24465 28.574338,40.8925 84.99699,53.00683 125.78675,27.01572 l 71.64791,-45.6645 c 19.57228,-12.31103 33.05293,-32.29757 37.13494,-55.05659 3.41731,-18.95882 0.41565,-38.51584 -8.53011,-55.57715 6.1313,-9.30303 10.31244,-19.75276 12.29068,-30.71751 4.12606,-23.195371 -1.26789,-47.074863 -14.96347,-66.244653"
           id="path881" />
        <path
           style="fill:#ffffff"
           inkscape:connector-curvature="0"
           d="m 106.88866,270.84127 c -23.101474,6.0068 -47.497155,-3.03592 -61.102249,-22.6487 -8.238653,-11.53155 -11.484062,-25.896 -9.003315,-39.84942 0.415837,-2.26774 0.988097,-4.50399 1.712679,-6.69272 l 1.349701,-4.1156 3.671834,2.69693 c 8.47982,6.23073 17.96117,10.96797 28.03541,14.00754 l 2.66368,0.80812 -0.245375,2.65846 c -0.325475,3.78197 0.698577,7.55704 2.890645,10.65609 4.094361,5.90778 11.439466,8.634 18.396813,6.82819 1.557586,-0.41631 3.042203,-1.06878 4.402189,-1.9347 l 71.670958,-45.67274 c 3.54584,-2.23276 5.98951,-5.85349 6.73367,-9.97712 0.74287,-4.20555 -0.2348,-8.53324 -2.71342,-12.01102 -4.0968,-5.909 -11.44375,-8.63638 -18.40395,-6.83203 -1.55554,0.41634 -3.03818,1.06833 -4.39642,1.93332 l -27.34902,17.43427 c -4.49721,2.85942 -9.40505,5.01464 -14.55352,6.39102 -23.101278,6.00645 -47.496575,-3.03636 -61.101423,-22.64897 -8.238985,-11.5313 -11.484429,-25.8958 -9.003315,-39.84914 2.456042,-13.68933 10.565725,-25.710517 22.339301,-33.114096 L 134.54817,43.232365 c 4.49912,-2.864109 9.41047,-5.022045 14.56314,-6.398713 23.10113,-6.006293 47.49622,3.036369 61.10115,22.648699 8.23865,11.531547 11.48406,25.895994 9.00331,39.849412 -0.41763,2.267347 -0.98986,4.503477 -1.71268,6.692727 l -1.3497,4.11559 -3.66991,-2.6928 C 204.00426,101.21298 194.522,96.473573 184.44615,93.433693 l -2.66368,-0.808392 0.24538,-2.658459 c 0.32267,-3.781636 -0.70113,-7.555678 -2.89065,-10.655819 -4.09436,-5.907777 -11.43947,-8.633997 -18.39681,-6.828188 -1.55759,0.416308 -3.04221,1.068775 -4.40219,1.934699 L 84.667236,120.0922 c -3.545347,2.231 -5.987642,5.8515 -6.728443,9.97437 -0.74747,4.20535 0.228557,8.53459 2.708193,12.01239 4.096861,5.90894 11.443754,8.6363 18.403958,6.83204 1.557196,-0.41716 3.041596,-1.06958 4.401916,-1.9347 l 27.34544,-17.42768 c 4.49527,-2.86318 9.40289,-5.02032 14.55187,-6.39624 23.10128,-6.00645 47.49658,3.03636 61.10143,22.64898 8.23898,11.53129 11.48443,25.89579 9.00331,39.84913 -2.45765,13.69005 -10.56675,25.71226 -22.3393,33.11932 l -71.66492,45.67274 c -4.49911,2.86411 -9.41046,5.02205 -14.56313,6.39872"
           id="path883" />
      </g>
      <rect
         y="198.04729"
         x="368.68402"
         height="99.424255"
         width="99.424255"
         id="rect923"
         style="opacity:0.7;fill:#1a1a1a;fill-opacity:0.99557525;stroke:none;stroke-width:0.25874257;stroke-miterlimit:4;stroke-dasharray:none;stroke-dashoffset:0;stroke-opacity:0.93681066" />
      <g
         transform="matrix(0.44264886,0,0,0.44264886,369.11032,96.147566)"
         id="g911">
        <g
           style="fill:#005385;fill-rule:nonzero;stroke-width:0;stroke-linecap:butt;stroke-linejoin:miter;stroke-miterlimit:4"
           id="g4161"
           stroke-miterlimit="4"
           transform="translate(-0.63683287,1.5502632)">
          <path
             inkscape:connector-curvature="0"
             id="path4163"
             d="m 112.871,349.254 c 0.328,-5.895 3.219,-11.094 7.574,-14.781 v 0 c 4.278,-3.621 10.032,-5.828 16.309,-5.832 v 0 c 6.277,0.004 12.031,2.211 16.309,5.832 v 0 c 4.355,3.687 7.246,8.886 7.578,14.781 0.332,6.062 -2.102,11.699 -6.379,15.871 v 0 c -4.356,4.246 -10.563,6.914 -17.504,6.914 v 0 c -6.945,0 -13.156,-2.668 -17.516,-6.914 v 0 c -4.273,-4.172 -6.707,-9.809 -6.371,-15.871 z" />
        </g>
        <g
           style="fill:#ff7021;fill-rule:nonzero;stroke-width:0;stroke-linecap:butt;stroke-linejoin:miter;stroke-miterlimit:4"
           id="g4165"
           stroke-miterlimit="4"
           transform="translate(-0.63683287,1.5502632)">
          <path
             inkscape:connector-curvature="0"
             id="path4167"
             d="m 74.8281,361.191 c 0.0391,2.301 0.7813,6.786 1.8828,10.297 v 0 c 2.3204,7.414 6.2579,14.278 11.7422,20.328 v 0 c 5.625,6.211 12.5429,11.207 20.5429,14.746 v 0 c 8.41,3.727 17.524,5.629 26.973,5.61 v 0 c 9.453,-0.016 18.562,-1.949 26.972,-5.699 v 0 c 7.993,-3.578 14.911,-8.586 20.532,-14.813 v 0 c 5.476,-6.074 9.406,-12.949 11.73,-20.367 v 0 c 1.176,-3.75 1.906,-7.551 2.207,-11.367 v 0 c 0.293,-3.758 0.168,-7.528 -0.363,-11.289 v 0 c -1.043,-7.332 -3.582,-14.215 -7.484,-20.489 -3.583,-5.761 -8.184,-10.808 -13.661,-15.058 v 0 l 0.008,-0.008 v 0 l -55.262,-42.437 v 0 c -0.046,-0.04 -0.093,-0.079 -0.14,-0.118 v 0 c -3.637,-2.777 -9.731,-2.769 -13.715,0.02 v 0 c -4.039,2.824 -4.492,7.484 -0.91,10.433 v 0 l -0.012,0.008 v 0 l 23.051,18.75 -70.2657,0.074 v 0 c -0.0313,0 -0.0625,0 -0.0977,0 v 0 c -5.8047,0.004 -11.3828,3.821 -12.4922,8.633 v 0 c -1.1289,4.907 2.8164,8.973 8.8516,8.996 v 0 l -0.0078,0.024 v 0 l 35.6132,-0.07 -63.5546,48.777 v 0 c -0.0782,0.062 -0.1641,0.121 -0.2422,0.183 v 0 c -5.9883,4.59 -7.9297,12.227 -4.1563,17.059 v 0 c 3.836,4.914 11.9805,4.918 18.0391,0.02 v 0 L 75.293,355.055 c 0,0 -0.5039,3.832 -0.4649,6.136 z m 89.1209,12.825 c -7.144,7.289 -17.144,11.414 -27.976,11.433 v 0 c -10.836,0.02 -20.84,-4.074 -27.989,-11.344 v 0 c -3.492,-3.546 -6.058,-7.613 -7.644,-11.96 v 0 c -1.547,-4.266 -2.1525,-8.79 -1.7541,-13.356 v 0 c 0.3868,-4.469 1.7031,-8.727 3.8321,-12.582 v 0 c 2.09,-3.789 4.961,-7.211 8.504,-10.109 v 0 c 6.945,-5.664 15.785,-8.727 25.043,-8.739 v 0 c 9.258,-0.011 18.094,3.028 25.043,8.668 v 0 c 3.539,2.883 6.41,6.293 8.496,10.075 v 0 c 2.129,3.851 3.449,8.101 3.84,12.57 v 0 c 0.394,4.566 -0.207,9.09 -1.758,13.359 v 0 c -1.582,4.352 -4.145,8.426 -7.637,11.985 z" />
        </g>
      </g>
      <rect
         style="opacity:0.7;fill:#1a1a1a;fill-opacity:0.99557525;stroke:none;stroke-width:0.25874257;stroke-miterlimit:4;stroke-dasharray:none;stroke-dashoffset:0;stroke-opacity:0.93681066"
         id="rect987"
         width="99.424255"
         height="99.424255"
         x="-477.37384"
         y="198.0473" />
      <rect
         y="327.31516"
         x="255.36176"
         height="99.424255"
         width="99.424255"
         id="rect989"
         style="opacity:0.7;fill:#1a1a1a;fill-opacity:0.99557525;stroke:none;stroke-width:0.25874257;stroke-miterlimit:4;stroke-dasharray:none;stroke-dashoffset:0;stroke-opacity:0.93681066" />
      <rect
         style="opacity:0.7;fill:#1a1a1a;fill-opacity:0.99557525;stroke:none;stroke-width:0.25874257;stroke-miterlimit:4;stroke-dasharray:none;stroke-dashoffset:0;stroke-opacity:0.93681066"
         id="rect991"
         width="99.424255"
         height="99.424255"
         x="139.36678"
         y="327.31516" />
      <rect
         y="198.0473"
         x="-357.35638"
         height="99.424255"
         width="99.424255"
         id="rect993"
         style="opacity:0.7;fill:#1a1a1a;fill-opacity:0.99557525;stroke:none;stroke-width:0.25874257;stroke-miterlimit:4;stroke-dasharray:none;stroke-dashoffset:0;stroke-opacity:0.93681066" />
      <rect
         style="opacity:0.7;fill:#1a1a1a;fill-opacity:0.99557525;stroke:none;stroke-width:0.25874257;stroke-miterlimit:4;stroke-dasharray:none;stroke-dashoffset:0;stroke-opacity:0.93681066"
         id="rect995"
         width="99.424255"
         height="99.424255"
         x="368.68402"
         y="327.31516" />
      <rect
         style="opacity:0.7;fill:#1a1a1a;fill-opacity:0.99557525;stroke:none;stroke-width:0.25874257;stroke-miterlimit:4;stroke-dasharray:none;stroke-dashoffset:0;stroke-opacity:0.93681066"
         id="rect997"
         width="99.424255"
         height="99.424255"
         x="-233.34332"
         y="198.04729" />
      <rect
         style="opacity:0.7;fill:#1a1a1a;fill-opacity:0.99557525;stroke:none;stroke-width:0.25874257;stroke-miterlimit:4;stroke-dasharray:none;stroke-dashoffset:0;stroke-opacity:0.93681066"
         id="rect914"
         width="99.424255"
         height="99.424255"
         x="-607.5766"
         y="198.0473" />
      <g
         id="g897"
         transform="matrix(0.46224843,0,0,0.46224843,-602.24032,203.38358)">
        <path
           id="path877"
           d="m 161.271,96.556 c -22.368,0.439 -17.709,14.599 -33.473,18.18 -16.014,3.638 -18.542,-39.111 -34.552,-39.111 -16.012,0 -19.559,41.526 -39.608,70.034 l -0.572,0.807 42.985,24.813 65.22,-37.651 z"
           inkscape:connector-curvature="0"
           style="fill:#36a2eb" />
        <path
           id="path879"
           d="m 161.271,95.267 c -7.488,-9.61 -12.567,-20.658 -23.494,-20.658 -19.337,0 -14.249,31.545 -35.62,31.545 -21.373,0 -23.62,-33.931 -47.832,-2.035 -7.715,10.163 -13.925,21.495 -18.803,32.218 l 60.529,34.943 65.22,-37.651 z"
           inkscape:connector-curvature="0"
           style="fill:#ffce56" />
        <path
           id="path881-3"
           d="m 30.829,108.334 c 7.338,-20.321 10.505,-36.779 24.514,-36.779 21.371,0 26.458,60.039 44.779,53.931 18.318,-6.105 16.282,-38.669 44.779,-38.669 5.424,0 10.962,3.323 16.371,8.698 v 38.113 L 96.052,171.279 30.83,133.628 v -25.294 z"
           inkscape:connector-curvature="0"
           style="opacity:0.8;fill:#fe6184" />
        <path
           id="path883-6"
           d="M 96,176 26.708,136.001 V 56 L 96,16 165.292,56 v 80 z M 34.849,131.301 96,166.602 157.151,131.301 V 60.7 L 96,25.399 34.849,60.7 Z"
           inkscape:connector-curvature="0"
           style="fill:#e7e9ed" />
      </g>
    </g>
    <g
       id="g935"
       transform="matrix(0.33062523,0,0,0.33062523,-449.3221,106.43239)">
      <path
         id="path933"
         d="M 128,0 C 93.866667,0 72.533333,17.066667 64,51.2 76.8,34.133333 91.733333,27.733333 108.8,32 c 9.73748,2.43437 16.69736,9.498548 24.40107,17.3184 C 145.75076,62.05677 160.27544,76.8 192,76.8 226.13333,76.8 247.46667,59.733333 256,25.6 243.2,42.666667 228.26667,49.066667 211.2,44.8 201.46252,42.36563 194.50264,35.301452 186.79893,27.4816 174.24924,14.74323 159.72456,0 128,0 Z M 64,76.8 C 29.866667,76.8 8.5333333,93.866667 0,128 c 12.8,-17.06667 27.733333,-23.46667 44.8,-19.2 9.737481,2.43437 16.697363,9.49855 24.401067,17.3184 C 81.750756,138.85677 96.275437,153.6 128,153.6 c 34.13333,0 55.46667,-17.06667 64,-51.2 -12.8,17.06667 -27.73333,23.46667 -44.8,19.2 -9.73748,-2.43437 -16.69736,-9.49855 -24.40107,-17.3184 C 110.24924,91.54323 95.724563,76.8 64,76.8 Z"
         inkscape:connector-curvature="0"
         style="fill:url(#linearGradient-1)" />
    </g>
    <g
       id="g961"
       transform="matrix(0.18724191,0,0,0.18724191,-685.51728,95.604912)">
      <path
         id="path947"
         d="M 207.5,22.4 321.9,89 c 13.5,7.9 21.9,22.4 21.9,38 v 136.4 c 0,17.3 -9.3,33.3 -24.5,41.8 l -113.5,63.9 c -15.1,8.5 -33.5,8.4 -48.5,-0.2 L 52.8,308.8 C 36.4,299.3 26.2,281.8 26.2,262.9 V 133.4 c 0,-19.1 9.9,-36.8 26.1,-46.8 L 155.1,23.1 c 16,-9.9 36.2,-10.1 52.4,-0.7 z"
         class="st0"
         inkscape:connector-curvature="0"
         style="clip-rule:evenodd;fill:#ff4088;fill-rule:evenodd;stroke:#c9177e;stroke-width:27" />
      <polygon
         id="polygon949"
         points="149,91 149,166.5 220.9,166.5 220.9,91 264.4,91 264.4,298.2 220.9,298.2 220.9,207.6 149,207.6 149,298.2 105.6,298.2 105.6,91 "
         class="st1"
         style="clip-rule:evenodd;fill:#ffffff;fill-rule:evenodd" />
    </g>
    <g
       id="g971"
       transform="matrix(0.15293725,0,0,0.15293725,-595.67901,86.86413)">
      <path
         id="path963"
         d="m 666.3,296.5 c 0,-32.5 -40.7,-63.3 -103.1,-82.4 14.4,-63.6 8,-114.2 -20.2,-130.4 -6.5,-3.8 -14.1,-5.6 -22.4,-5.6 v 22.3 c 4.6,0 8.3,0.9 11.4,2.6 13.6,7.8 19.5,37.5 14.9,75.7 -1.1,9.4 -2.9,19.3 -5.1,29.4 -19.6,-4.8 -41,-8.5 -63.5,-10.9 -13.5,-18.5 -27.5,-35.3 -41.6,-50 32.6,-30.3 63.2,-46.9 84,-46.9 V 78 c 0,0 0,0 0,0 -27.5,0 -63.5,19.6 -99.9,53.6 C 384.4,97.8 348.4,78.4 320.9,78.4 v 22.3 c 20.7,0 51.4,16.5 84,46.6 -14,14.7 -28,31.4 -41.3,49.9 -22.6,2.4 -44,6.1 -63.6,11 -2.3,-10 -4,-19.7 -5.2,-29 -4.7,-38.2 1.1,-67.9 14.6,-75.8 3,-1.8 6.9,-2.6 11.5,-2.6 V 78.5 c 0,0 0,0 0,0 -8.4,0 -16,1.8 -22.6,5.6 -28.1,16.2 -34.4,66.7 -19.9,130.1 -62.2,19.2 -102.7,49.9 -102.7,82.3 0,32.5 40.7,63.3 103.1,82.4 -14.4,63.6 -8,114.2 20.2,130.4 6.5,3.8 14.1,5.6 22.5,5.6 27.5,0 63.5,-19.6 99.9,-53.6 36.4,33.8 72.4,53.2 99.9,53.2 8.4,0 16,-1.8 22.6,-5.6 28.1,-16.2 34.4,-66.7 19.9,-130.1 62,-19.1 102.5,-49.9 102.5,-82.3 z M 536.1,229.8 c -3.7,12.9 -8.3,26.2 -13.5,39.5 -4.1,-8 -8.4,-16 -13.1,-24 -4.6,-8 -9.5,-15.8 -14.4,-23.4 14.2,2.1 27.9,4.7 41,7.9 z m -45.8,106.5 c -7.8,13.5 -15.8,26.3 -24.1,38.2 -14.9,1.3 -30,2 -45.2,2 -15.1,0 -30.2,-0.7 -45,-1.9 -8.3,-11.9 -16.4,-24.6 -24.2,-38 -7.6,-13.1 -14.5,-26.4 -20.8,-39.8 6.2,-13.4 13.2,-26.8 20.7,-39.9 7.8,-13.5 15.8,-26.3 24.1,-38.2 14.9,-1.3 30,-2 45.2,-2 15.1,0 30.2,0.7 45,1.9 8.3,11.9 16.4,24.6 24.2,38 7.6,13.1 14.5,26.4 20.8,39.8 -6.3,13.4 -13.2,26.8 -20.7,39.9 z m 32.3,-13 c 5.4,13.4 10,26.8 13.8,39.8 -13.1,3.2 -26.9,5.9 -41.2,8 4.9,-7.7 9.8,-15.6 14.4,-23.7 4.6,-8 8.9,-16.1 13,-24.1 z M 421.2,430 c -9.3,-9.6 -18.6,-20.3 -27.8,-32 9,0.4 18.2,0.7 27.5,0.7 9.4,0 18.7,-0.2 27.8,-0.7 -9,11.7 -18.3,22.4 -27.5,32 z m -74.4,-58.9 c -14.2,-2.1 -27.9,-4.7 -41,-7.9 3.7,-12.9 8.3,-26.2 13.5,-39.5 4.1,8 8.4,16 13.1,24 4.7,8 9.5,15.8 14.4,23.4 z M 420.7,163 c 9.3,9.6 18.6,20.3 27.8,32 -9,-0.4 -18.2,-0.7 -27.5,-0.7 -9.4,0 -18.7,0.2 -27.8,0.7 9,-11.7 18.3,-22.4 27.5,-32 z m -74,58.9 c -4.9,7.7 -9.8,15.6 -14.4,23.7 -4.6,8 -8.9,16 -13,24 -5.4,-13.4 -10,-26.8 -13.8,-39.8 13.1,-3.1 26.9,-5.8 41.2,-7.9 z m -90.5,125.2 c -35.4,-15.1 -58.3,-34.9 -58.3,-50.6 0,-15.7 22.9,-35.6 58.3,-50.6 8.6,-3.7 18,-7 27.7,-10.1 5.7,19.6 13.2,40 22.5,60.9 -9.2,20.8 -16.6,41.1 -22.2,60.6 -9.9,-3.1 -19.3,-6.5 -28,-10.2 z M 310,490 c -13.6,-7.8 -19.5,-37.5 -14.9,-75.7 1.1,-9.4 2.9,-19.3 5.1,-29.4 19.6,4.8 41,8.5 63.5,10.9 13.5,18.5 27.5,35.3 41.6,50 -32.6,30.3 -63.2,46.9 -84,46.9 -4.5,-0.1 -8.3,-1 -11.3,-2.7 z m 237.2,-76.2 c 4.7,38.2 -1.1,67.9 -14.6,75.8 -3,1.8 -6.9,2.6 -11.5,2.6 -20.7,0 -51.4,-16.5 -84,-46.6 14,-14.7 28,-31.4 41.3,-49.9 22.6,-2.4 44,-6.1 63.6,-11 2.3,10.1 4.1,19.8 5.2,29.1 z m 38.5,-66.7 c -8.6,3.7 -18,7 -27.7,10.1 -5.7,-19.6 -13.2,-40 -22.5,-60.9 9.2,-20.8 16.6,-41.1 22.2,-60.6 9.9,3.1 19.3,6.5 28.1,10.2 35.4,15.1 58.3,34.9 58.3,50.6 -0.1,15.7 -23,35.6 -58.4,50.6 z"
         inkscape:connector-curvature="0"
         style="fill:#61dafb" />
      <polygon
         id="polygon965"
         points=""
         style="fill:#61dafb" />
      <circle
         id="circle967"
         r="45.700001"
         cy="296.5"
         cx="420.89999"
         style="fill:#61dafb" />
      <polygon
         id="polygon969"
         points=""
         style="fill:#61dafb" />
    </g>
  </g>
  <style
     id="style945"
     type="text/css">
	.st0{fill-rule:evenodd;clip-rule:evenodd;fill:#FF4088;stroke:#C9177E;stroke-width:27;}
	.st1{fill-rule:evenodd;clip-rule:evenodd;fill:#FFFFFF;}
</style>
</svg>
