<?xml version="1.0" encoding="UTF-8" standalone="no"?>
<!-- Created with Inkscape (http://www.inkscape.org/) -->

<svg
   xmlns:dc="http://purl.org/dc/elements/1.1/"
   xmlns:cc="http://creativecommons.org/ns#"
   xmlns:rdf="http://www.w3.org/1999/02/22-rdf-syntax-ns#"
   xmlns:svg="http://www.w3.org/2000/svg"
   xmlns="http://www.w3.org/2000/svg"
   xmlns:sodipodi="http://sodipodi.sourceforge.net/DTD/sodipodi-0.dtd"
   xmlns:inkscape="http://www.inkscape.org/namespaces/inkscape"
   width="99.424255mm"
   height="99.424255mm"
   viewBox="0 0 99.424255 99.424255"
   version="1.1"
   id="svg940"
   inkscape:version="0.92.4 (f8dce91, 2019-08-02)"
   sodipodi:docname="chartjs-logo.svg">
  <defs
     id="defs934" />
  <sodipodi:namedview
     id="base"
     pagecolor="#ffffff"
     bordercolor="#666666"
     borderopacity="1.0"
     inkscape:pageopacity="0.0"
     inkscape:pageshadow="2"
     inkscape:zoom="0.35"
     inkscape:cx="72.174063"
     inkscape:cy="-129.2545"
     inkscape:document-units="mm"
     inkscape:current-layer="layer1"
     showgrid="false"
     fit-margin-top="0"
     fit-margin-left="0"
     fit-margin-right="0"
     fit-margin-bottom="0"
     inkscape:window-width="1920"
     inkscape:window-height="1016"
     inkscape:window-x="0"
     inkscape:window-y="27"
     inkscape:window-maximized="1" />
  <metadata
     id="metadata937">
    <rdf:RDF>
      <cc:Work
         rdf:about="">
        <dc:format>image/svg+xml</dc:format>
        <dc:type
           rdf:resource="http://purl.org/dc/dcmitype/StillImage" />
        <dc:title></dc:title>
      </cc:Work>
    </rdf:RDF>
  </metadata>
  <g
     inkscape:label="Layer 1"
     inkscape:groupmode="layer"
     id="layer1"
     transform="translate(74.658554,-15.210491)">
    <g
       id="g897"
       transform="matrix(0.46224844,0,0,0.46224844,-69.322272,20.546768)">
      <path
         id="path877"
         d="m 161.271,96.556 c -22.368,0.439 -17.709,14.599 -33.473,18.18 -16.014,3.638 -18.542,-39.111 -34.552,-39.111 -16.012,0 -19.559,41.526 -39.608,70.034 l -0.572,0.807 42.985,24.813 65.22,-37.651 z"
         inkscape:connector-curvature="0"
         style="fill:#36a2eb" />
      <path
         id="path879"
         d="m 161.271,95.267 c -7.488,-9.61 -12.567,-20.658 -23.494,-20.658 -19.337,0 -14.249,31.545 -35.62,31.545 -21.373,0 -23.62,-33.931 -47.832,-2.035 -7.715,10.163 -13.925,21.495 -18.803,32.218 l 60.529,34.943 65.22,-37.651 z"
         inkscape:connector-curvature="0"
         style="fill:#ffce56" />
      <path
         id="path881-3"
         d="m 30.829,108.334 c 7.338,-20.321 10.505,-36.779 24.514,-36.779 21.371,0 26.458,60.039 44.779,53.931 18.318,-6.105 16.282,-38.669 44.779,-38.669 5.424,0 10.962,3.323 16.371,8.698 v 38.113 L 96.052,171.279 30.83,133.628 v -25.294 z"
         inkscape:connector-curvature="0"
         style="opacity:0.8;fill:#fe6184" />
      <path
         id="path883-6"
         d="M 96,176 26.708,136.001 V 56 L 96,16 165.292,56 v 80 z M 34.849,131.301 96,166.602 157.151,131.301 V 60.7 L 96,25.399 34.849,60.7 Z"
         inkscape:connector-curvature="0"
         style="fill:#e7e9ed" />
    </g>
  </g>
</svg>
