<?xml version="1.0" encoding="UTF-8" standalone="no"?>
<!-- Created with Inkscape (http://www.inkscape.org/) -->

<svg
   xmlns:dc="http://purl.org/dc/elements/1.1/"
   xmlns:cc="http://creativecommons.org/ns#"
   xmlns:rdf="http://www.w3.org/1999/02/22-rdf-syntax-ns#"
   xmlns:svg="http://www.w3.org/2000/svg"
   xmlns="http://www.w3.org/2000/svg"
   xmlns:sodipodi="http://sodipodi.sourceforge.net/DTD/sodipodi-0.dtd"
   xmlns:inkscape="http://www.inkscape.org/namespaces/inkscape"
   width="99.424255mm"
   height="99.424255mm"
   viewBox="0 0 99.424255 99.424255"
   version="1.1"
   id="svg940"
   inkscape:version="0.92.4 (f8dce91, 2019-08-02)"
   sodipodi:docname="hugo_logo.svg">
  <defs
     id="defs934" />
  <sodipodi:namedview
     id="base"
     pagecolor="#ffffff"
     bordercolor="#666666"
     borderopacity="1.0"
     inkscape:pageopacity="0.0"
     inkscape:pageshadow="2"
     inkscape:zoom="0.35"
     inkscape:cx="-159.93758"
     inkscape:cy="375.77669"
     inkscape:document-units="mm"
     inkscape:current-layer="layer1"
     showgrid="false"
     fit-margin-top="0"
     fit-margin-left="0"
     fit-margin-right="0"
     fit-margin-bottom="0"
     inkscape:window-width="1920"
     inkscape:window-height="1016"
     inkscape:window-x="0"
     inkscape:window-y="27"
     inkscape:window-maximized="1" />
  <metadata
     id="metadata937">
    <rdf:RDF>
      <cc:Work
         rdf:about="">
        <dc:format>image/svg+xml</dc:format>
        <dc:type
           rdf:resource="http://purl.org/dc/dcmitype/StillImage" />
        <dc:title></dc:title>
      </cc:Work>
    </rdf:RDF>
  </metadata>
  <g
     inkscape:label="Layer 1"
     inkscape:groupmode="layer"
     id="layer1"
     transform="translate(13.245682,-148.83333)">
    <g
       id="g961"
       transform="matrix(0.18724191,0,0,0.18724191,1.8266824,161.94797)">
      <path
         id="path947"
         d="M 207.5,22.4 321.9,89 c 13.5,7.9 21.9,22.4 21.9,38 v 136.4 c 0,17.3 -9.3,33.3 -24.5,41.8 l -113.5,63.9 c -15.1,8.5 -33.5,8.4 -48.5,-0.2 L 52.8,308.8 C 36.4,299.3 26.2,281.8 26.2,262.9 V 133.4 c 0,-19.1 9.9,-36.8 26.1,-46.8 L 155.1,23.1 c 16,-9.9 36.2,-10.1 52.4,-0.7 z"
         class="st0"
         inkscape:connector-curvature="0"
         style="clip-rule:evenodd;fill:#ff4088;fill-rule:evenodd;stroke:#c9177e;stroke-width:27" />
      <polygon
         id="polygon949"
         points="220.9,298.2 220.9,207.6 149,207.6 149,298.2 105.6,298.2 105.6,91 149,91 149,166.5 220.9,166.5 220.9,91 264.4,91 264.4,298.2 "
         class="st1"
         style="clip-rule:evenodd;fill:#ffffff;fill-rule:evenodd" />
    </g>
  </g>
</svg>
