<?xml version="1.0" encoding="UTF-8"?>
<!-- Created with Inkscape (http://www.inkscape.org/) -->
<svg width="107.92mm" height="107.92mm" version="1.1" viewBox="0 0 107.92 107.92" xmlns="http://www.w3.org/2000/svg" xmlns:cc="http://creativecommons.org/ns#" xmlns:dc="http://purl.org/dc/elements/1.1/" xmlns:rdf="http://www.w3.org/1999/02/22-rdf-syntax-ns#">
 <metadata>
  <rdf:RDF>
   <cc:Work rdf:about="">
    <dc:format>image/svg+xml</dc:format>
    <dc:type rdf:resource="http://purl.org/dc/dcmitype/StillImage"/>
    <dc:title/>
   </cc:Work>
  </rdf:RDF>
 </metadata>
 <g transform="translate(-213.82 -175.58)">
  <g transform="matrix(.78737 0 0 .78737 207.08 182.16)">
   <g transform="translate(0,-87)">
    <path d="m27.935 120.78c-3.818 0-7.216 1.7336-9.4535 4.4596a63.966 63.966 0 0 0-2.3155 16.783 63.966 63.966 0 0 0 16.2 42.426c4.5658-1.7678 7.7885-6.189 7.7885-11.394v-40.055c0-6.7699-5.45-12.22-12.22-12.22z" fill="#b3c370"/>
    <rect x="44.792" y="91.021" width="24.44" height="64.494" ry="12.22" fill="#70ca50"/>
    <rect x="102.95" y="104.94" width="24.44" height="64.494" ry="12.22" fill="#ffb314"/>
    <path d="m57.012 162.07c-6.7699 0-12.22 5.45-12.22 12.22v21.009a63.966 63.966 0 0 0 24.44 9.6938v-30.703c0-6.7699-5.45-12.22-12.22-12.22z" fill="#f66f38"/>
    <path d="m86.089 146.47c-6.7699 0-12.221 5.45-12.221 12.22v40.054c0 2.6306 0.82602 5.0598 2.2295 7.0495a63.966 63.966 0 0 0 4.033 0.20214 63.966 63.966 0 0 0 17.157-2.347c0.6548-1.5002 1.0206-3.1578 1.0206-4.9046v-40.054c0-6.7699-5.45-12.22-12.22-12.22z" fill="#f8f464"/>
    <path d="m115.17 175.99c-6.7699 0-12.22 5.4507-12.22 12.221v13.556a63.966 63.966 0 0 0 24.11-16.385c-1.2702-5.3965-6.0947-9.3918-11.89-9.3918z" fill="#b95050"/>
   </g>
  </g>
 </g>
</svg>
