<?xml version="1.0" encoding="UTF-8" standalone="no"?>
<!-- Created with Inkscape (http://www.inkscape.org/) -->

<svg
   xmlns:dc="http://purl.org/dc/elements/1.1/"
   xmlns:cc="http://creativecommons.org/ns#"
   xmlns:rdf="http://www.w3.org/1999/02/22-rdf-syntax-ns#"
   xmlns:svg="http://www.w3.org/2000/svg"
   xmlns="http://www.w3.org/2000/svg"
   xmlns:xlink="http://www.w3.org/1999/xlink"
   xmlns:sodipodi="http://sodipodi.sourceforge.net/DTD/sodipodi-0.dtd"
   xmlns:inkscape="http://www.inkscape.org/namespaces/inkscape"
   width="92.924759mm"
   height="84.533478mm"
   viewBox="0 0 92.924759 84.533478"
   version="1.1"
   id="svg8"
   inkscape:version="0.92.4 (f8dce91, 2019-08-02)"
   sodipodi:docname="bootstraplogo.svg">
  <defs
     id="defs2">
    <linearGradient
       inkscape:collect="always"
       id="linearGradient945">
      <stop
         style="stop-color:#ff00ff;stop-opacity:1;"
         offset="0"
         id="stop941" />
      <stop
         style="stop-color:#fa00ff;stop-opacity:0"
         offset="1"
         id="stop943" />
    </linearGradient>
    <linearGradient
       inkscape:collect="always"
       id="linearGradient933">
      <stop
         style="stop-color:#563d7c;stop-opacity:0.03539823"
         offset="0"
         id="stop929" />
      <stop
         style="stop-color:#ffffff;stop-opacity:1"
         offset="1"
         id="stop931" />
    </linearGradient>
    <linearGradient
       inkscape:collect="always"
       xlink:href="#linearGradient933"
       id="linearGradient935"
       x1="94.896324"
       y1="164.715"
       x2="360.17523"
       y2="-100.56391"
       gradientUnits="userSpaceOnUse" />
    <linearGradient
       inkscape:collect="always"
       xlink:href="#linearGradient945"
       id="linearGradient947"
       x1="510.92151"
       y1="-233.34657"
       x2="20.333538"
       y2="193.25624"
       gradientUnits="userSpaceOnUse"
       gradientTransform="translate(10.39411,-10.39411)" />
    <linearGradient
       inkscape:collect="always"
       xlink:href="#linearGradient945"
       id="linearGradient1031"
       gradientUnits="userSpaceOnUse"
       gradientTransform="translate(10.39411,-10.39411)"
       x1="510.92151"
       y1="-233.34657"
       x2="20.333538"
       y2="193.25624" />
    <linearGradient
       inkscape:collect="always"
       xlink:href="#linearGradient933"
       id="linearGradient1033"
       gradientUnits="userSpaceOnUse"
       x1="94.896324"
       y1="164.715"
       x2="360.17523"
       y2="-100.56391" />
  </defs>
  <sodipodi:namedview
     id="base"
     pagecolor="#ffffff"
     bordercolor="#666666"
     borderopacity="1.0"
     inkscape:pageopacity="0.0"
     inkscape:pageshadow="2"
     inkscape:zoom="0.7"
     inkscape:cx="-86.038776"
     inkscape:cy="253.91787"
     inkscape:document-units="mm"
     inkscape:current-layer="g927"
     showgrid="false"
     inkscape:snap-bbox="true"
     fit-margin-top="0"
     fit-margin-left="0"
     fit-margin-right="0"
     fit-margin-bottom="0"
     inkscape:window-width="1920"
     inkscape:window-height="1016"
     inkscape:window-x="0"
     inkscape:window-y="27"
     inkscape:window-maximized="1" />
  <metadata
     id="metadata5">
    <rdf:RDF>
      <cc:Work
         rdf:about="">
        <dc:format>image/svg+xml</dc:format>
        <dc:type
           rdf:resource="http://purl.org/dc/dcmitype/StillImage" />
        <dc:title></dc:title>
      </cc:Work>
    </rdf:RDF>
  </metadata>
  <g
     inkscape:label="Layer 1"
     inkscape:groupmode="layer"
     id="layer1"
     transform="translate(42.214849,-55.105753)">
    <g
       transform="matrix(0.19632158,-0.12856775,0.19632158,0.12856775,-46.010794,88.205891)"
       id="g927"
       style="fill:url(#linearGradient935);fill-opacity:1">
      <g
         id="g1029"
         style="fill:url(#linearGradient1033)">
        <g
           style="opacity:0.8;fill:#000000;fill-opacity:0"
           transform="translate(-81.691941,81.691941)"
           id="g919">
          <path
             style="fill:#000000;fill-opacity:0"
             inkscape:connector-curvature="0"
             d="M 0,222.99122 C 0,241.22347 14.778532,256 33.008775,256 H 222.99122 C 241.22347,256 256,241.22147 256,222.99122 V 33.008775 C 256,14.776526 241.22147,0 222.99122,0 H 33.008775 C 14.776526,0 0,14.778532 0,33.008775 Z"
             id="path915" />
        </g>
        <g
           style="opacity:0.7;fill:#7237c7;fill-opacity:0.96470588"
           id="g913"
           transform="translate(-81.691941,81.691941)">
          <path
             id="path909"
             d="M 0,222.99122 C 0,241.22347 14.778532,256 33.008775,256 H 222.99122 C 241.22347,256 256,241.22147 256,222.99122 V 33.008775 C 256,14.776526 241.22147,0 222.99122,0 H 33.008775 C 14.776526,0 0,14.778532 0,33.008775 Z"
             inkscape:connector-curvature="0"
             style="fill:#7237c7;fill-opacity:0.96470588" />
        </g>
        <g
           transform="translate(-35.494429,35.494429)"
           id="g896"
           style="opacity:0.85;fill:#7237c7;fill-opacity:0.96460176">
          <path
             style="fill:#7237c7;fill-opacity:0.96460176"
             inkscape:connector-curvature="0"
             d="m -0.15447972,223.1457 c 0,18.23225 14.77853172,33.00878 33.00877472,33.00878 H 222.83674 c 18.23225,0 33.00878,-14.77853 33.00878,-33.00878 V 33.163255 c 0,-18.232249 -14.77853,-33.00877528 -33.00878,-33.00877528 H 32.854295 c -18.232249,0 -33.00877472,14.77853228 -33.00877472,33.00877528 z"
             id="path892" />
          <path
             style="fill:#7237c7;fill-opacity:0.96460176"
             inkscape:connector-curvature="0"
             d="M 106.15756,113.2381 V 76.984594 h 31.91177 c 3.03923,0 5.96987,0.253265 8.79201,0.759804 2.82215,0.506538 5.31862,1.411058 7.4895,2.713585 2.17088,1.302528 3.90756,3.111567 5.21008,5.427171 1.30253,2.315605 1.95379,5.282428 1.95379,8.90056 0,6.512636 -1.95377,11.216136 -5.86135,14.110646 -3.90758,2.8945 -8.90053,4.34174 -14.97899,4.34174 z M 72.07493,50.5 v 155 h 75.11204 c 6.94682,0 13.71262,-0.86834 20.29762,-2.60504 6.585,-1.73671 12.44629,-4.41408 17.58404,-8.03222 5.13774,-3.61813 9.22617,-8.28545 12.2654,-14.0021 3.03923,-5.71664 4.55883,-12.48245 4.55883,-20.29762 0,-9.69659 -2.35175,-17.98199 -7.05533,-24.85644 -4.70357,-6.87445 -11.83118,-11.68649 -21.38305,-14.43627 6.94681,-3.32868 12.19303,-7.59801 15.7388,-12.80812 3.54577,-5.21011 5.31863,-11.722655 5.31863,-19.53782 0,-7.236264 -1.19397,-13.314635 -3.58194,-18.235294 -2.38797,-4.92066 -5.75278,-8.864365 -10.09454,-11.831233 -4.34175,-2.966868 -9.55179,-5.101534 -15.63025,-6.404062 C 159.12672,51.151254 152.3971,50.5 145.01611,50.5 Z m 34.08263,128.51541 v -42.54902 h 37.12185 c 7.38099,0 13.31464,1.70049 17.80112,5.10154 4.48649,3.40104 6.72969,9.08142 6.72969,17.04131 0,4.05231 -0.68743,7.38094 -2.06232,9.986 -1.37489,2.60505 -3.22011,4.66736 -5.53572,6.18697 -2.3156,1.51962 -4.99298,2.60504 -8.03221,3.2563 -3.03923,0.65127 -6.22314,0.9769 -9.55182,0.9769 z"
             id="path894" />
        </g>
        <g
           style="fill:#7237c7;fill-opacity:0.96460176"
           id="g1015"
           transform="translate(10.39411,-10.39411)">
          <path
             id="path1011"
             d="M 0,222.99122 C 0,241.22347 14.778532,256 33.008775,256 H 222.99122 C 241.22347,256 256,241.22147 256,222.99122 V 33.008775 C 256,14.776526 241.22147,0 222.99122,0 H 33.008775 C 14.776526,0 0,14.778532 0,33.008775 Z"
             inkscape:connector-curvature="0"
             style="fill:#7237c7;fill-opacity:0.96460176" />
          <path
             id="path1013"
             d="M 106.15756,113.2381 V 76.984594 h 31.91177 c 3.03923,0 5.96987,0.253265 8.79201,0.759804 2.82215,0.506538 5.31862,1.411058 7.4895,2.713585 2.17088,1.302528 3.90756,3.111567 5.21008,5.427171 1.30253,2.315605 1.95379,5.282428 1.95379,8.90056 0,6.512636 -1.95377,11.216136 -5.86135,14.110646 -3.90758,2.8945 -8.90053,4.34174 -14.97899,4.34174 z M 72.07493,50.5 v 155 h 75.11204 c 6.94682,0 13.71262,-0.86834 20.29762,-2.60504 6.585,-1.73671 12.44629,-4.41408 17.58404,-8.03222 5.13774,-3.61813 9.22617,-8.28545 12.2654,-14.0021 3.03923,-5.71664 4.55883,-12.48245 4.55883,-20.29762 0,-9.69659 -2.35175,-17.98199 -7.05533,-24.85644 -4.70357,-6.87445 -11.83118,-11.68649 -21.38305,-14.43627 6.94681,-3.32868 12.19303,-7.59801 15.7388,-12.80812 3.54577,-5.21011 5.31863,-11.722655 5.31863,-19.53782 0,-7.236264 -1.19397,-13.314635 -3.58194,-18.235294 -2.38797,-4.92066 -5.75278,-8.864365 -10.09454,-11.831233 -4.34175,-2.966868 -9.55179,-5.101534 -15.63025,-6.404062 C 159.12672,51.151254 152.3971,50.5 145.01611,50.5 Z m 34.08263,128.51541 v -42.54902 h 37.12185 c 7.38099,0 13.31464,1.70049 17.80112,5.10154 4.48649,3.40104 6.72969,9.08142 6.72969,17.04131 0,4.05231 -0.68743,7.38094 -2.06232,9.986 -1.37489,2.60505 -3.22011,4.66736 -5.53572,6.18697 -2.3156,1.51962 -4.99298,2.60504 -8.03221,3.2563 -3.03923,0.65127 -6.22314,0.9769 -9.55182,0.9769 z"
             inkscape:connector-curvature="0"
             style="fill:#7237c7;fill-opacity:0.96460176" />
        </g>
        <path
           id="path923"
           d="m 10.39411,212.59711 c 0,18.23225 14.77853,33.00878 33.00878,33.00878 h 189.98244 c 18.23225,0 33.00878,-14.77853 33.00878,-33.00878 V 22.614661 c 0,-18.23225 -14.77853,-33.008771 -33.00878,-33.008771 H 43.40289 c -18.23225,0 -33.00878,14.778531 -33.00878,33.008771 z"
           inkscape:connector-curvature="0"
           style="fill:url(#linearGradient1031);fill-opacity:1" />
        <path
           style="fill:#ffffff;fill-opacity:0.94690265"
           inkscape:connector-curvature="0"
           d="M 116.55167,102.84399 V 66.590486 h 31.91177 c 3.03923,0 5.96987,0.25326 8.79201,0.7598 2.82215,0.50654 5.31862,1.41106 7.4895,2.71359 2.17088,1.30253 3.90756,3.11156 5.21008,5.42717 1.30253,2.3156 1.95379,5.28243 1.95379,8.90056 0,6.51263 -1.95377,11.21613 -5.86135,14.11064 -3.90758,2.894504 -8.90053,4.341744 -14.97899,4.341744 z M 82.469042,40.105886 V 195.10589 h 75.112038 c 6.94682,0 13.71262,-0.86834 20.29762,-2.60504 6.585,-1.73671 12.44629,-4.41408 17.58404,-8.03222 5.13774,-3.61813 9.22617,-8.28545 12.2654,-14.0021 3.03923,-5.71664 4.55883,-12.48245 4.55883,-20.29762 0,-9.69659 -2.35175,-17.98199 -7.05533,-24.85644 -4.70357,-6.87445 -11.83118,-11.68649 -21.38305,-14.43627 6.94681,-3.32868 12.19303,-7.59801 15.7388,-12.808124 3.54577,-5.21011 5.31863,-11.72265 5.31863,-19.53782 0,-7.23626 -1.19397,-13.31463 -3.58194,-18.23529 -2.38797,-4.92066 -5.75278,-8.86436 -10.09454,-11.83123 -4.34175,-2.96687 -9.55179,-5.10154 -15.63025,-6.40406 -6.07846,-1.30253 -12.80808,-1.95379 -20.18907,-1.95379 z M 116.55167,168.6213 v -42.54902 h 37.12185 c 7.38099,0 13.31464,1.70049 17.80112,5.10154 4.48649,3.40104 6.72969,9.08142 6.72969,17.04131 0,4.05231 -0.68743,7.38094 -2.06232,9.986 -1.37489,2.60505 -3.22011,4.66736 -5.53572,6.18697 -2.3156,1.51962 -4.99298,2.60504 -8.03221,3.2563 -3.03923,0.65127 -6.22314,0.9769 -9.55182,0.9769 z"
           id="path949" />
      </g>
    </g>
  </g>
</svg>
