<?xml version="1.0" encoding="UTF-8" standalone="no"?>
<svg
   xmlns:dc="http://purl.org/dc/elements/1.1/"
   xmlns:cc="http://creativecommons.org/ns#"
   xmlns:rdf="http://www.w3.org/1999/02/22-rdf-syntax-ns#"
   xmlns:svg="http://www.w3.org/2000/svg"
   xmlns="http://www.w3.org/2000/svg"
   id="svg963"
   version="1.1"
   viewBox="0 0 107.92452 107.92452"
   height="107.92452mm"
   width="107.92452mm">
  <defs
     id="defs957" />
  <metadata
     id="metadata960">
    <rdf:RDF>
      <cc:Work
         rdf:about="">
        <dc:format>image/svg+xml</dc:format>
        <dc:type
           rdf:resource="http://purl.org/dc/dcmitype/StillImage" />
        <dc:title></dc:title>
      </cc:Work>
    </rdf:RDF>
  </metadata>
  <g
     transform="translate(220.27179,-113.01393)"
     id="layer1">
    <g
       transform="matrix(0.93443147,0,0,0.93443147,-253.8452,66.063511)"
       id="g918">
      <path
         style="opacity:1;fill:#2e3132;fill-opacity:0.98230088;stroke:none;stroke-width:0.89727068;stroke-miterlimit:4;stroke-dasharray:none;stroke-dashoffset:0;stroke-opacity:0.93681066"
         d="m 354.07227,225.15039 c -4.77697,0 -9.55449,1.30183 -13.21485,3.9082 L 178,345.02148 v 0.0293 c -3.18784,2.28761 -5.26367,6.01759 -5.26367,10.25781 v 223.24414 c 0,6.99531 5.63164,12.62696 12.62695,12.62696 h 337.39063 c 6.9953,0 12.62695,-5.63165 12.62695,-12.62696 V 355.30859 c 0,-4.61316 -2.45656,-8.6212 -6.13086,-10.82421 v -0.0996 L 367.28711,229.05859 c -3.66036,-2.60637 -8.43788,-3.9082 -13.21484,-3.9082 z"
         id="rect831"
         transform="scale(0.26458333)" />
      <rect
         style="opacity:1;fill:#d8ccca;fill-opacity:0.97345132;stroke:none;stroke-width:0.32953307;stroke-miterlimit:4;stroke-dasharray:none;stroke-dashoffset:0;stroke-opacity:0.93681066"
         id="rect841"
         width="89.802567"
         height="53.69445"
         x="48.830143"
         y="73.990303" />
      <path
         style="opacity:1;fill:#5090b1;fill-opacity:0.99557525;stroke:none;stroke-width:1.06204724;stroke-miterlimit:4;stroke-dasharray:none;stroke-dashoffset:0;stroke-opacity:0.93681066"
         d="m 172.73633,378.03711 v 200.51562 c 0,6.99531 5.63164,12.62696 12.62695,12.62696 h 337.39063 c 2.69014,0 5.17469,-0.83874 7.21875,-2.26172 C 511.48127,581.14726 446.75071,553.36318 415.17188,532.08594 359.20243,494.37483 324.3881,427.67052 264.1543,397.23047 236.36415,383.18631 172.73633,378.03711 172.73633,378.03711 Z"
         transform="scale(0.26458333)"
         id="rect828" />
      <path
         style="opacity:1;fill:#00c9c9;fill-opacity:0.98230088;stroke:none;stroke-width:1.06204724;stroke-miterlimit:4;stroke-dasharray:none;stroke-dashoffset:0;stroke-opacity:0.93681066"
         d="m 535.38086,378.03711 c 0,0 -63.62782,5.1492 -91.41797,19.19336 -60.2338,30.44005 -95.05011,97.14436 -151.01953,134.85547 -31.5787,21.27715 -96.30712,49.06118 -114.79883,56.83203 2.04406,1.42298 4.52861,2.26172 7.21875,2.26172 h 337.39063 c 6.9953,0 12.62695,-5.63165 12.62695,-12.62696 z"
         id="rect821"
         transform="scale(0.26458333)" />
    </g>
  </g>
</svg>
